<mxfile host="Electron" modified="2025-05-09T14:39:26.871Z" agent="Mozilla/5.0 (Windows NT 10.0; Win64; x64) AppleWebKit/537.36 (KHTML, like Gecko) draw.io/24.6.1 Chrome/124.0.6367.207 Electron/30.0.6 Safari/537.36" etag="Mu4yxQqDtCpeAWGwURk8" version="24.6.1" type="device">
  <diagram name="Страница — 1" id="USTQDWiR24TbLogDyqb7">
    <mxGraphModel dx="1420" dy="961" grid="0" gridSize="10" guides="1" tooltips="1" connect="1" arrows="1" fold="1" page="1" pageScale="1" pageWidth="3300" pageHeight="2339" math="0" shadow="0">
      <root>
        <mxCell id="0" />
        <mxCell id="1" parent="0" />
        <mxCell id="KClo8jF_fh-rj8Jrmpcy-1" value="&lt;font style=&quot;font-size: 14px;&quot; face=&quot;ISOCPEUR&quot;&gt;Пользователь&lt;/font&gt;" style="shape=umlActor;verticalLabelPosition=bottom;verticalAlign=top;html=1;outlineConnect=0;fontSize=14;" vertex="1" parent="1">
          <mxGeometry x="122" y="300" width="30" height="60" as="geometry" />
        </mxCell>
        <mxCell id="KClo8jF_fh-rj8Jrmpcy-4" value="&lt;font style=&quot;font-size: 14px;&quot; face=&quot;ISOCPEUR&quot;&gt;Посмотреть справку&lt;/font&gt;" style="ellipse;whiteSpace=wrap;html=1;fontFamily=Helvetica;fontSize=14;" vertex="1" parent="1">
          <mxGeometry x="230" y="109" width="120" height="71" as="geometry" />
        </mxCell>
        <mxCell id="KClo8jF_fh-rj8Jrmpcy-5" value="&lt;font style=&quot;font-size: 14px;&quot; face=&quot;ISOCPEUR&quot;&gt;Посмотреть статистику&lt;/font&gt;" style="ellipse;whiteSpace=wrap;html=1;fontSize=14;" vertex="1" parent="1">
          <mxGeometry x="310" y="170" width="120" height="70.866" as="geometry" />
        </mxCell>
        <mxCell id="KClo8jF_fh-rj8Jrmpcy-6" value="&lt;font style=&quot;font-size: 14px;&quot; face=&quot;ISOCPEUR&quot;&gt;Выбрать уровень для просмотра статистики&lt;/font&gt;" style="ellipse;whiteSpace=wrap;html=1;fontSize=14;" vertex="1" parent="1">
          <mxGeometry x="520" y="139" width="120" height="71" as="geometry" />
        </mxCell>
        <mxCell id="KClo8jF_fh-rj8Jrmpcy-8" value="&lt;font style=&quot;font-size: 14px;&quot; face=&quot;ISOCPEUR&quot;&gt;Посмотреть правила&lt;/font&gt;" style="ellipse;whiteSpace=wrap;html=1;fontSize=14;" vertex="1" parent="1">
          <mxGeometry x="370" y="250" width="120" height="70.866" as="geometry" />
        </mxCell>
        <mxCell id="KClo8jF_fh-rj8Jrmpcy-9" value="&lt;font style=&quot;font-size: 14px;&quot; face=&quot;ISOCPEUR&quot;&gt;Выбрать фон&amp;nbsp;&lt;/font&gt;" style="ellipse;whiteSpace=wrap;html=1;fontSize=14;" vertex="1" parent="1">
          <mxGeometry x="600" y="300" width="110" height="70.866" as="geometry" />
        </mxCell>
        <mxCell id="KClo8jF_fh-rj8Jrmpcy-10" value="&lt;font style=&quot;font-size: 14px;&quot; face=&quot;ISOCPEUR&quot;&gt;Выбрать музыку&lt;/font&gt;" style="ellipse;whiteSpace=wrap;html=1;fontSize=14;" vertex="1" parent="1">
          <mxGeometry x="590" y="410" width="120" height="70.866" as="geometry" />
        </mxCell>
        <mxCell id="KClo8jF_fh-rj8Jrmpcy-11" value="&lt;font style=&quot;font-size: 14px;&quot; face=&quot;ISOCPEUR&quot;&gt;Изменить опции&lt;/font&gt;" style="ellipse;whiteSpace=wrap;html=1;fontSize=14;" vertex="1" parent="1">
          <mxGeometry x="370" y="340" width="120" height="70.866" as="geometry" />
        </mxCell>
        <mxCell id="KClo8jF_fh-rj8Jrmpcy-12" value="&lt;font style=&quot;font-size: 14px;&quot; face=&quot;ISOCPEUR&quot;&gt;Выйти из приложения&lt;/font&gt;" style="ellipse;whiteSpace=wrap;html=1;fontSize=14;" vertex="1" parent="1">
          <mxGeometry x="310" y="416" width="120" height="70.866" as="geometry" />
        </mxCell>
        <mxCell id="KClo8jF_fh-rj8Jrmpcy-13" value="&lt;font style=&quot;font-size: 14px;&quot; face=&quot;ISOCPEUR&quot;&gt;Играть&lt;/font&gt;" style="ellipse;whiteSpace=wrap;html=1;fontSize=14;" vertex="1" parent="1">
          <mxGeometry x="230" y="493" width="120" height="70.866" as="geometry" />
        </mxCell>
        <mxCell id="KClo8jF_fh-rj8Jrmpcy-14" value="&lt;font style=&quot;font-size: 14px;&quot; face=&quot;ISOCPEUR&quot;&gt;Выбрать уровень&lt;/font&gt;" style="ellipse;whiteSpace=wrap;html=1;fontSize=14;" vertex="1" parent="1">
          <mxGeometry x="430" y="493" width="120" height="70.866" as="geometry" />
        </mxCell>
        <mxCell id="KClo8jF_fh-rj8Jrmpcy-16" value="" style="endArrow=none;html=1;rounded=0;entryX=0;entryY=1;entryDx=0;entryDy=0;fontSize=14;" edge="1" parent="1" target="KClo8jF_fh-rj8Jrmpcy-4">
          <mxGeometry width="50" height="50" relative="1" as="geometry">
            <mxPoint x="160" y="330" as="sourcePoint" />
            <mxPoint x="290" y="450" as="targetPoint" />
          </mxGeometry>
        </mxCell>
        <mxCell id="KClo8jF_fh-rj8Jrmpcy-17" value="" style="endArrow=none;html=1;rounded=0;exitX=0;exitY=0.5;exitDx=0;exitDy=0;fontSize=14;" edge="1" parent="1" source="KClo8jF_fh-rj8Jrmpcy-5">
          <mxGeometry width="50" height="50" relative="1" as="geometry">
            <mxPoint x="240" y="500" as="sourcePoint" />
            <mxPoint x="160" y="330" as="targetPoint" />
          </mxGeometry>
        </mxCell>
        <mxCell id="KClo8jF_fh-rj8Jrmpcy-19" value="" style="endArrow=none;html=1;rounded=0;entryX=0;entryY=0.5;entryDx=0;entryDy=0;fontSize=14;" edge="1" parent="1" target="KClo8jF_fh-rj8Jrmpcy-8">
          <mxGeometry width="50" height="50" relative="1" as="geometry">
            <mxPoint x="160" y="330" as="sourcePoint" />
            <mxPoint x="290" y="450" as="targetPoint" />
          </mxGeometry>
        </mxCell>
        <mxCell id="KClo8jF_fh-rj8Jrmpcy-20" value="" style="endArrow=none;html=1;rounded=0;entryX=0;entryY=0.5;entryDx=0;entryDy=0;fontSize=14;" edge="1" parent="1" target="KClo8jF_fh-rj8Jrmpcy-11">
          <mxGeometry width="50" height="50" relative="1" as="geometry">
            <mxPoint x="160" y="330" as="sourcePoint" />
            <mxPoint x="290" y="450" as="targetPoint" />
          </mxGeometry>
        </mxCell>
        <mxCell id="KClo8jF_fh-rj8Jrmpcy-21" value="" style="endArrow=none;html=1;rounded=0;fontSize=14;entryX=0;entryY=0.5;entryDx=0;entryDy=0;" edge="1" parent="1" target="KClo8jF_fh-rj8Jrmpcy-12">
          <mxGeometry width="50" height="50" relative="1" as="geometry">
            <mxPoint x="160" y="330" as="sourcePoint" />
            <mxPoint x="290" y="430" as="targetPoint" />
          </mxGeometry>
        </mxCell>
        <mxCell id="KClo8jF_fh-rj8Jrmpcy-22" value="" style="endArrow=none;html=1;rounded=0;exitX=0;exitY=0;exitDx=0;exitDy=0;fontSize=14;" edge="1" parent="1" source="KClo8jF_fh-rj8Jrmpcy-13">
          <mxGeometry width="50" height="50" relative="1" as="geometry">
            <mxPoint x="229" y="502" as="sourcePoint" />
            <mxPoint x="160" y="330" as="targetPoint" />
          </mxGeometry>
        </mxCell>
        <mxCell id="KClo8jF_fh-rj8Jrmpcy-23" value="" style="endArrow=none;dashed=1;html=1;dashPattern=1 3;strokeWidth=2;rounded=0;entryX=0;entryY=0.5;entryDx=0;entryDy=0;exitX=1;exitY=0.5;exitDx=0;exitDy=0;startArrow=open;startFill=0;fontSize=14;" edge="1" parent="1" source="KClo8jF_fh-rj8Jrmpcy-13" target="KClo8jF_fh-rj8Jrmpcy-14">
          <mxGeometry width="50" height="50" relative="1" as="geometry">
            <mxPoint x="240" y="503" as="sourcePoint" />
            <mxPoint x="290" y="453" as="targetPoint" />
          </mxGeometry>
        </mxCell>
        <mxCell id="KClo8jF_fh-rj8Jrmpcy-24" value="&lt;font style=&quot;font-size: 14px;&quot; face=&quot;ISOCPEUR&quot;&gt;&amp;lt;extend&amp;gt;&lt;/font&gt;" style="text;html=1;align=center;verticalAlign=middle;whiteSpace=wrap;rounded=0;fontSize=14;" vertex="1" parent="1">
          <mxGeometry x="360" y="503" width="60" height="30" as="geometry" />
        </mxCell>
        <mxCell id="KClo8jF_fh-rj8Jrmpcy-26" value="" style="endArrow=none;dashed=1;html=1;dashPattern=1 3;strokeWidth=2;rounded=0;entryX=0;entryY=0.5;entryDx=0;entryDy=0;exitX=0.963;exitY=0.711;exitDx=0;exitDy=0;startArrow=open;startFill=0;exitPerimeter=0;fontSize=14;" edge="1" parent="1" source="KClo8jF_fh-rj8Jrmpcy-11" target="KClo8jF_fh-rj8Jrmpcy-10">
          <mxGeometry width="50" height="50" relative="1" as="geometry">
            <mxPoint x="500" y="430" as="sourcePoint" />
            <mxPoint x="620" y="430" as="targetPoint" />
          </mxGeometry>
        </mxCell>
        <mxCell id="KClo8jF_fh-rj8Jrmpcy-27" value="&lt;font style=&quot;font-size: 14px;&quot; face=&quot;ISOCPEUR&quot;&gt;&amp;lt;extend&amp;gt;&lt;/font&gt;" style="text;html=1;align=center;verticalAlign=middle;whiteSpace=wrap;rounded=0;fontSize=14;" vertex="1" parent="1">
          <mxGeometry x="520" y="380" width="60" height="30" as="geometry" />
        </mxCell>
        <mxCell id="KClo8jF_fh-rj8Jrmpcy-32" value="" style="endArrow=none;dashed=1;html=1;dashPattern=1 3;strokeWidth=2;rounded=0;entryX=1;entryY=0.5;entryDx=0;entryDy=0;startArrow=open;startFill=0;exitX=0;exitY=0.5;exitDx=0;exitDy=0;fontSize=14;" edge="1" parent="1" source="KClo8jF_fh-rj8Jrmpcy-6" target="KClo8jF_fh-rj8Jrmpcy-5">
          <mxGeometry width="50" height="50" relative="1" as="geometry">
            <mxPoint x="530" y="230" as="sourcePoint" />
            <mxPoint x="530" y="280" as="targetPoint" />
          </mxGeometry>
        </mxCell>
        <mxCell id="KClo8jF_fh-rj8Jrmpcy-33" value="" style="endArrow=none;dashed=1;html=1;dashPattern=1 3;strokeWidth=2;rounded=0;entryX=0;entryY=0.5;entryDx=0;entryDy=0;startArrow=open;startFill=0;exitX=1;exitY=0.5;exitDx=0;exitDy=0;fontSize=14;" edge="1" parent="1" source="KClo8jF_fh-rj8Jrmpcy-11" target="KClo8jF_fh-rj8Jrmpcy-9">
          <mxGeometry width="50" height="50" relative="1" as="geometry">
            <mxPoint x="490" y="390" as="sourcePoint" />
            <mxPoint x="600" y="415" as="targetPoint" />
          </mxGeometry>
        </mxCell>
        <mxCell id="KClo8jF_fh-rj8Jrmpcy-34" value="&lt;font style=&quot;font-size: 14px;&quot; face=&quot;ISOCPEUR&quot;&gt;&amp;lt;extend&amp;gt;&lt;/font&gt;" style="text;html=1;align=center;verticalAlign=middle;whiteSpace=wrap;rounded=0;fontSize=14;" vertex="1" parent="1">
          <mxGeometry x="510" y="325" width="60" height="30" as="geometry" />
        </mxCell>
        <mxCell id="KClo8jF_fh-rj8Jrmpcy-35" value="&lt;font style=&quot;font-size: 14px;&quot; face=&quot;ISOCPEUR&quot;&gt;&amp;lt;include&amp;gt;&lt;/font&gt;" style="text;html=1;align=center;verticalAlign=middle;whiteSpace=wrap;rounded=0;fontSize=14;" vertex="1" parent="1">
          <mxGeometry x="430" y="160" width="60" height="30" as="geometry" />
        </mxCell>
      </root>
    </mxGraphModel>
  </diagram>
</mxfile>
